<?xml version="1.0" encoding="utf-8"?>
<!-- Generator: Adobe Illustrator 27.0.0, SVG Export Plug-In . SVG Version: 6.00 Build 0)  -->
<svg version="1.1" id="Layer_1" xmlns="http://www.w3.org/2000/svg" xmlns:xlink="http://www.w3.org/1999/xlink" x="0px" y="0px"
	 viewBox="0 0 1920 1080" style="enable-background:new 0 0 1920 1080;" xml:space="preserve">
<style type="text/css">
	.st0{fill:#009679;}
	.st1{display:none;}
	.st2{display:inline;fill:#009679;}
	.st3{fill:#F8C216;}
	.st4{fill:#FFFFFF;}
</style>
<g>
	<g>
		<g>
			<g>
				<path class="st0" d="M413.5,703.14c0,18.3-0.13,36.59,0.04,54.89c0.17,19.43-8.03,34.16-24.08,44.88
					c-49.77,33.22-104.56,49.11-164.29,45.87c-54.66-2.96-103.4-21.4-142.45-60.96c-36.36-36.84-54.62-82-58.83-133.29
					c-4.13-50.36,5.94-97.43,33.6-139.84c36.89-56.57,89.54-88.69,156.71-95.6c49.84-5.13,98.07,1.2,142.72,25.75
					c7.89,4.33,15.57,9.16,22.86,14.44c17.36,12.58,21.06,34.82,9.03,51.85c-11.49,16.28-33.3,20.09-50.63,7.8
					c-21.79-15.44-45.06-26.7-71.61-31.37c-92.43-16.28-153.23,47.95-164.03,118.58c-6.97,45.59,0.67,88.64,29.98,125.72
					c24.72,31.28,58.02,47.03,97.49,49.56c37.51,2.4,72.68-5.46,104.87-25.55c5.75-3.59,8.12-7.68,7.97-14.58
					c-0.45-20.04-0.35-40.1-0.06-60.15c0.09-6.25-2.13-8.26-8.27-8.19c-24.06,0.25-48.12,0.21-72.18,0.04
					c-16.96-0.12-29.76-9.25-33.75-23.58c-5.46-19.66,8.87-40.15,29.92-40.52c40.09-0.71,80.2-0.63,120.29-0.02
					c19.86,0.3,34.5,16.5,34.66,36.39C413.62,664.54,413.5,683.84,413.5,703.14z"/>
			</g>
			<g>
				<path class="st0" d="M1463.99,520.89c84.33-0.06,150.68,51.59,167.14,127.68c21,97.11-45.39,188.75-144.22,199.23
					c-47.19,5-90.51-5.09-127.47-35.34c-49.47-40.48-68.52-93.81-57.54-156.12c11.21-63.6,49.7-105.71,110.51-127.14
					C1430,523,1448.34,520.32,1463.99,520.89z"/>
			</g>
			<g>
				<path class="st0" d="M772.36,520.88c81.13,0.02,145.05,47.43,164.86,120.01c26.77,98.08-40.77,196.51-141.88,206.86
					c-54.4,5.57-102.71-8.17-141.47-47.6c-43.94-44.7-56.7-99.08-40.59-158.78c16.34-60.57,57.41-98.26,117.54-115.24
					C745.35,522.04,760.29,520.46,772.36,520.88z"/>
			</g>
			<g class="st1">
				<path class="st2" d="M1897,377.04c-0.08,29.71-8.69,56.76-25.78,81.01c-25.97,36.84-52.09,73.57-78.22,110.3
					c-6.83,9.6-16.33,13.56-28.08,14.95c-26.06,3.1-43.75-6.33-58-28.94c-20.4-32.36-43.81-62.84-66.12-93.98
					c-63.79-89.03-9.61-211.81,99.15-224.53c79.83-9.33,152.67,52.53,156.54,132.94C1896.62,371.54,1896.83,374.29,1897,377.04z"/>
			</g>
			<g class="st1">
				<path class="st2" d="M1122.56,755.02c7.44-18.94,14.67-37.32,21.88-55.7c19.12-48.74,38.24-97.48,57.33-146.23
					c5.31-13.56,12.4-25.56,28.12-28.59c14.06-2.72,26.56,0.74,35.7,12.3c9.13,11.55,9.47,24.43,3.83,37.59
					c-8.69,20.26-17.57,40.44-26.38,60.65c-25.23,57.87-50.46,115.74-75.71,173.61c-4.31,9.89-9.05,19.4-16.55,27.52
					c-14.44,15.62-46.54,16.17-61.45-1.58c-4.72-5.62-8.63-11.66-11.56-18.37c-34.4-78.74-68.76-157.5-103.25-236.21
					c-6.63-15.14-8.94-29.71,2.75-43.64c15.18-18.09,44.61-16.73,57.76,2.85c6.08,9.05,9.02,19.53,12.93,29.54
					c23.33,59.74,46.5,119.54,69.78,179.29C1118.63,750.27,1118.83,753,1122.56,755.02z"/>
			</g>
			<g>
				<path class="st0" d="M479.37,624.26c0-61.39-0.15-122.79,0.06-184.18c0.09-27.01,26.12-43.95,50.49-32.97
					c14.43,6.5,21.5,18.36,21.75,34.05c0.25,15.53,0.07,31.07,0.07,46.61c0,105.75-0.02,211.5,0.03,317.25
					c0.01,11.79-2.76,22.47-11.94,30.45c-11.69,10.15-25.24,12.32-39.28,6.3c-13.89-5.96-21.18-17.12-21.18-32.56
					C479.37,747.55,479.37,685.91,479.37,624.26z"/>
			</g>
			<g>
				<path class="st3" d="M1754.9,608.23c22.81,0,39.28,16.13,39.26,38.45c-0.02,22.08-16.8,38.51-39.38,38.56
					c-22.7,0.05-39.27-16.23-39.22-38.55C1715.6,624.45,1732.19,608.24,1754.9,608.23z"/>
			</g>
			<g>
				<path class="st4" d="M1466.19,584.33c48.01,0.01,87.32,34.15,94.64,82.07c4.28,28.03,0.47,54.67-15.49,78.42
					c-35.28,52.47-111.05,54.99-151.69,5.44c-32.75-39.94-28.93-105.71,8.22-141.54C1418.46,592.71,1440.58,584.33,1466.19,584.33z"
					/>
			</g>
			<g>
				<path class="st4" d="M679.6,683.93c0.05-45.77,24.76-82.39,64.26-95.2c57.87-18.78,117.74,19.48,125.33,79.86
					c3.89,30.95-1.28,59.75-21.65,83.99c-42.17,50.18-121.62,42.34-154.26-14.71C684.06,721.76,679.58,704.08,679.6,683.93z"/>
			</g>
		</g>
	</g>
	<g>
		<g>
			<g>
				<path class="st0" d="M1120.77,548.5c77.31-0.05,138.15,47.3,153.24,117.07c19.25,89.03-41.62,173.06-132.23,182.66
					c-43.27,4.59-82.98-4.67-116.87-32.4c-45.35-37.11-62.83-86.01-52.76-143.14c10.28-58.31,45.57-96.92,101.32-116.56
					C1089.61,550.44,1106.43,547.98,1120.77,548.5z"/>
			</g>
			<g>
				<path class="st0" d="M969.92,620c0-61.39-0.15-122.79,0.06-184.18c0.09-27.01,26.12-43.95,50.49-32.97
					c14.43,6.5,21.5,18.36,21.75,34.05c0.25,15.53,0.07,31.07,0.07,46.61c0,105.75-0.02,211.5,0.03,317.25
					c0.01,11.79-2.76,22.47-11.94,30.45c-11.69,10.15-25.24,12.32-39.28,6.3c-13.89-5.96-21.18-17.12-21.18-32.56
					C969.92,743.29,969.93,681.65,969.92,620z"/>
			</g>
			<g>
				<path class="st4" d="M1197.87,698.89c0-10.63-1.78-20.63-5.31-30.02c-3.54-9.38-8.68-17.71-15.41-24.97
					c-6.73-7.26-14.71-13.02-23.91-17.27c-9.22-4.25-19.31-6.38-30.29-6.38c-11.69,0-22.05,2.04-31.09,6.11
					c-9.03,4.08-16.74,9.66-23.11,16.74c-6.38,7.09-11.25,15.33-14.61,24.71c-3.37,9.39-5.05,19.4-5.05,30.02v1.06
					c0,10.63,1.77,20.64,5.32,30.02c3.54,9.39,8.67,17.72,15.41,24.97c6.72,7.26,14.61,13.02,23.65,17.27
					c9.03,4.25,19.21,6.38,30.56,6.38c11.69,0,22.05-2.03,31.09-6.11c9.03-4.07,16.74-9.65,23.11-16.74
					c6.38-7.08,11.24-15.32,14.61-24.71c3.36-9.38,5.05-19.4,5.05-30.02V698.89z"/>
			</g>
		</g>
	</g>
	<path class="st3" d="M1755.24,230.65c-75.51,0-136.73,61.22-136.73,136.73s107.35,214.35,136.35,214.35
		c26.71,0,137.11-138.84,137.11-214.35S1830.75,230.65,1755.24,230.65z M1657.82,288.14c12.13-14.74,27.72-26.74,45.09-34.7
		c0.27-0.12,0.55-0.18,0.83-0.18c0.6,0,1.19,0.27,1.58,0.78c0.57,0.74,0.56,1.77-0.03,2.49c-9.42,11.59-17.11,26.14-22.84,43.24
		c-0.17,0.51-0.54,0.93-1.03,1.17c-0.28,0.13-0.57,0.2-0.87,0.2c-0.23,0-0.46-0.04-0.68-0.12c-7.92-2.87-15.16-6.19-21.52-9.87
		c-0.51-0.29-0.86-0.8-0.97-1.38C1657.3,289.19,1657.45,288.59,1657.82,288.14z M1648.02,301.85c0.38-0.61,1.03-0.95,1.7-0.95
		c0.35,0,0.7,0.09,1.02,0.28c7.57,4.5,16.3,8.51,25.95,11.92c0.97,0.34,1.52,1.36,1.28,2.36c-3.4,14.12-5.39,29.08-5.91,44.48
		c-0.03,1.08-0.92,1.93-2,1.93h-38.63c-0.55,0-1.08-0.23-1.46-0.63c-0.38-0.4-0.57-0.95-0.54-1.5
		C1630.79,339.28,1637.22,319.26,1648.02,301.85z M1649.72,435.37c-0.67,0-1.33-0.34-1.7-0.95c-10.8-17.41-17.22-37.43-18.58-57.89
		c-0.04-0.55,0.16-1.1,0.54-1.5c0.38-0.4,0.91-0.63,1.46-0.63h38.63c1.08,0,1.96,0.86,2,1.93c0.52,15.4,2.5,30.36,5.91,44.48
		c0.24,1-0.31,2.01-1.28,2.36c-9.64,3.41-18.37,7.42-25.95,11.92C1650.42,435.28,1650.07,435.37,1649.72,435.37z M1705.33,482.23
		c-0.39,0.5-0.98,0.78-1.58,0.78c-0.28,0-0.57-0.06-0.83-0.18c-17.36-7.95-32.96-19.95-45.09-34.7c-0.37-0.45-0.53-1.05-0.42-1.63
		c0.11-0.58,0.46-1.08,0.97-1.38c6.36-3.68,13.6-7,21.52-9.87c0.22-0.08,0.45-0.12,0.68-0.12c0.3,0,0.6,0.07,0.87,0.2
		c0.48,0.23,0.85,0.65,1.03,1.17c5.73,17.1,13.41,31.65,22.84,43.24C1705.88,480.47,1705.9,481.5,1705.33,482.23z M1748.97,491.27
		c0,0.61-0.28,1.18-0.75,1.56c-0.36,0.29-0.8,0.44-1.25,0.44c-0.15,0-0.3-0.02-0.44-0.05c-21.09-4.8-40.43-27.36-51.76-60.36
		c-0.18-0.53-0.13-1.11,0.13-1.6c0.26-0.49,0.72-0.85,1.26-0.99c15.83-4.07,32.9-6.42,50.74-6.98c0.02,0,0.04,0,0.06,0
		c0.52,0,1.02,0.2,1.39,0.56c0.39,0.38,0.61,0.9,0.61,1.44V491.27z M1748.97,408.75c0,1.08-0.86,1.97-1.94,2
		c-19.04,0.57-37.36,3.12-54.45,7.57c-0.17,0.04-0.34,0.06-0.5,0.06c-0.36,0-0.72-0.1-1.03-0.28c-0.46-0.28-0.79-0.72-0.92-1.25
		c-3.12-12.88-4.97-26.47-5.51-40.39c-0.02-0.54,0.18-1.07,0.56-1.46c0.38-0.39,0.9-0.61,1.44-0.61h60.35c1.11,0,2,0.9,2,2V408.75z
		 M1748.97,359.87c0,1.11-0.9,2-2,2h-60.35c-0.54,0-1.07-0.22-1.44-0.61c-0.38-0.39-0.58-0.92-0.56-1.47
		c0.54-13.92,2.39-27.5,5.51-40.39c0.12-0.52,0.46-0.97,0.92-1.25c0.31-0.19,0.67-0.28,1.03-0.28c0.17,0,0.34,0.02,0.5,0.06
		c17.09,4.45,35.41,7,54.45,7.57c1.08,0.03,1.94,0.92,1.94,2V359.87z M1748.97,310.99c0,0.54-0.22,1.06-0.61,1.44
		c-0.38,0.36-0.87,0.56-1.39,0.56c-0.02,0-0.04,0-0.06,0c-17.83-0.56-34.9-2.91-50.74-6.99c-0.54-0.14-1-0.5-1.26-0.99
		c-0.27-0.49-0.31-1.07-0.13-1.6c11.32-33,30.67-55.56,51.76-60.36c0.15-0.03,0.3-0.05,0.44-0.05c0.45,0,0.89,0.15,1.25,0.44
		c0.48,0.38,0.75,0.96,0.75,1.56V310.99z M1860.75,300.9c0.67,0,1.32,0.34,1.7,0.95c10.8,17.41,17.23,37.43,18.58,57.9
		c0.04,0.55-0.16,1.1-0.54,1.5c-0.38,0.4-0.91,0.63-1.46,0.63h-38.63c-1.08,0-1.96-0.86-2-1.93c-0.52-15.4-2.5-30.36-5.91-44.47
		c-0.24-1,0.31-2.01,1.28-2.36c9.64-3.41,18.37-7.43,25.95-11.93C1860.05,300.99,1860.4,300.9,1860.75,300.9z M1805.15,254.04
		c0.39-0.5,0.98-0.78,1.58-0.78c0.28,0,0.57,0.06,0.83,0.18c17.37,7.95,32.96,19.95,45.08,34.69c0.37,0.45,0.53,1.05,0.42,1.63
		c-0.11,0.58-0.46,1.08-0.97,1.38c-6.41,3.72-13.64,7.04-21.51,9.89c-0.22,0.08-0.45,0.12-0.68,0.12c-0.3,0-0.6-0.07-0.87-0.2
		c-0.48-0.23-0.85-0.65-1.03-1.17c-5.73-17.11-13.42-31.66-22.84-43.26C1804.59,255.8,1804.58,254.77,1805.15,254.04z M1761.5,245
		c0-0.61,0.28-1.18,0.75-1.56c0.36-0.29,0.8-0.44,1.25-0.44c0.15,0,0.3,0.02,0.44,0.05c21.09,4.8,40.44,27.36,51.76,60.37
		c0.18,0.53,0.13,1.11-0.13,1.6c-0.26,0.49-0.72,0.85-1.26,0.99c-15.82,4.07-32.9,6.42-50.74,6.98c-0.02,0-0.04,0-0.06,0
		c-0.52,0-1.02-0.2-1.39-0.56c-0.39-0.38-0.61-0.9-0.61-1.44V245z M1761.5,327.52c0-1.08,0.86-1.97,1.94-2
		c19.06-0.57,37.38-3.12,54.46-7.57c0.17-0.04,0.34-0.06,0.5-0.06c0.36,0,0.72,0.1,1.03,0.28c0.46,0.28,0.79,0.72,0.92,1.25
		c3.12,12.88,4.97,26.46,5.5,40.38c0.02,0.54-0.18,1.07-0.56,1.47c-0.38,0.39-0.9,0.61-1.44,0.61h-60.35c-1.11,0-2-0.9-2-2V327.52z
		 M1761.5,376.4c0-1.11,0.9-2,2-2h60.35c0.54,0,1.07,0.22,1.44,0.61c0.38,0.39,0.58,0.92,0.56,1.46c-0.54,13.92-2.39,27.5-5.5,40.38
		c-0.13,0.52-0.46,0.97-0.92,1.25c-0.31,0.19-0.67,0.28-1.03,0.28c-0.17,0-0.34-0.02-0.5-0.06c-17.08-4.45-35.41-6.99-54.46-7.57
		c-1.08-0.03-1.94-0.92-1.94-2V376.4z M1763.95,493.22c-0.15,0.03-0.3,0.05-0.44,0.05c-0.45,0-0.89-0.15-1.25-0.44
		c-0.47-0.38-0.75-0.96-0.75-1.56v-65.98c0-0.54,0.22-1.06,0.61-1.44c0.38-0.36,0.87-0.56,1.39-0.56c0.02,0,0.04,0,0.06,0
		c17.83,0.56,34.91,2.91,50.74,6.98c0.54,0.14,1,0.5,1.26,0.99c0.27,0.49,0.31,1.07,0.13,1.6
		C1804.38,465.85,1785.03,488.42,1763.95,493.22z M1852.65,448.13c-12.13,14.74-27.72,26.74-45.08,34.69
		c-0.27,0.12-0.55,0.18-0.83,0.18c-0.6,0-1.19-0.27-1.58-0.78c-0.57-0.73-0.56-1.77,0.03-2.49c9.43-11.6,17.11-26.15,22.84-43.26
		c0.17-0.51,0.54-0.93,1.03-1.17c0.28-0.13,0.57-0.2,0.87-0.2c0.23,0,0.46,0.04,0.68,0.12c7.85,2.84,15.08,6.17,21.5,9.89
		c0.51,0.29,0.86,0.8,0.97,1.38C1853.17,447.08,1853.02,447.68,1852.65,448.13z M1862.45,434.43c-0.38,0.61-1.03,0.95-1.7,0.95
		c-0.35,0-0.7-0.09-1.02-0.28c-7.59-4.51-16.32-8.52-25.95-11.93c-0.97-0.34-1.52-1.36-1.28-2.36c3.4-14.11,5.39-29.08,5.91-44.47
		c0.04-1.08,0.92-1.93,2-1.93h38.63c0.55,0,1.08,0.23,1.46,0.63c0.38,0.4,0.57,0.95,0.54,1.5
		C1879.68,397,1873.25,417.02,1862.45,434.43z"/>
</g>
</svg>
